<?xml version="1.0" standalone="no"?>
<!DOCTYPE svg PUBLIC "-//W3C//DTD SVG 20010904//EN"
 "http://www.w3.org/TR/2001/REC-SVG-20010904/DTD/svg10.dtd">
<svg version="1.0" xmlns="http://www.w3.org/2000/svg"
 width="500.000000pt" height="500.000000pt" viewBox="0 0 500.000000 500.000000"
 preserveAspectRatio="xMidYMid meet">
<metadata>
Created by potrace 1.16, written by Peter Selinger 2001-2019
</metadata>
<g transform="translate(0.000000,500.000000) scale(0.100000,-0.100000)"
fill="#000000" stroke="none">
<path d="M3505 3104 c-320 -71 -540 -322 -574 -657 -18 -178 13 -309 109 -454
62 -95 147 -178 374 -368 166 -139 199 -197 160 -281 -32 -68 -105 -87 -143
-38 -18 22 -21 41 -21 114 0 71 -3 89 -16 94 -9 3 -134 6 -279 6 -215 0 -266
-3 -278 -14 -14 -15 -37 -158 -37 -232 0 -59 26 -169 55 -231 51 -113 191
-224 341 -270 85 -26 351 -26 444 1 245 70 427 238 504 464 50 147 59 326 21
437 -24 70 -80 161 -140 224 -27 30 -120 115 -205 190 -252 222 -300 280 -300
362 1 44 32 114 58 128 34 18 87 13 108 -10 16 -18 19 -37 19 -114 0 -52 4
-97 8 -101 5 -5 126 -10 270 -12 318 -5 301 -12 318 122 26 204 -23 372 -145
491 -68 66 -137 107 -230 137 -85 28 -321 34 -421 12z"/>
</g>
</svg>
